<?xml version="1.0" encoding="UTF-8"?>
<svg viewBox="15 25 470 415" xmlns="http://www.w3.org/2000/svg" xmlns:xlink="http://www.w3.org/1999/xlink">
  <defs>
    <radialGradient gradientUnits="userSpaceOnUse" cx="10640.5" cy="9497" r="9189.5" id="gradient-0" gradientTransform="matrix(0.021437, 0, 0, 0.02251, 22.716964, 19.197218)">
      <stop offset="0" style="stop-color: rgb(7, 0, 235);"></stop>
      <stop offset="1" style="stop-color: rgb(0% 0% 35.144%)"></stop>
    </radialGradient>
  </defs>
  <g class="Group">
    <path stroke="rgb(0,0,0)" stroke-linejoin="round" d="M 145.455 43.93 L 362.379 43.93 L 467.762 229.883 L 362.379 422.022 L 145.455 422.022 L 33.887 229.883 L 145.455 43.93 Z" style="fill: url(#gradient-0); stroke-width: 25px; filter: none;"></path>
    <path fill="none" stroke="rgb(255,255,255)" stroke-linejoin="round" d="M 322.483 298.51 C 315.85 305.71 308.155 311.846 299.538 316.781 C 284.808 325.257 268.141 329.693 251.12 329.693 C 234.122 329.693 217.409 325.257 202.678 316.781 C 187.947 308.307 175.743 296.125 167.243 281.464 C 158.746 266.805 154.26 250.161 154.26 233.236 C 154.26 216.285 158.746 199.642 167.243 184.984 C 175.743 170.322 187.947 158.141 202.678 149.667 C 217.409 141.191 234.099 136.753 251.096 136.753 C 268.118 136.753 284.808 141.191 299.538 149.667 C 308.178 154.954 316.299 162.344 323.546 169.922" style="filter: drop-shadow(rgba(28, 28, 28, 0.867) 0px 5px 1px); stroke-width: 55px;"></path>
    <g class="Group" id="amogus" style="filter: drop-shadow(rgba(28, 28, 28, 0.71) 1px 2px 1px);">
      <path stroke="none" d="M 235.538 268.012 C 235.112 252.923 234.59 240.484 237.429 226.531 C 240.267 212.578 244.83 203.901 250.838 196.972 C 256.867 190.042 264.081 186.686 271.389 187.156 C 278.697 187.63 285.744 191.699 291.513 199.052 C 297.284 206.408 300.357 213.785 302.747 226.603 C 308.068 227.406 313.342 229.984 317.574 234.004 C 321.807 238.025 324.811 243.203 326.419 249.21 C 328.027 255.218 328.31 261.745 327.577 268.46 C 327.697 269.453 235.353 268.662 235.538 268.012 Z" style="fill: rgb(195, 0, 4);"></path>
      <path fill-opacity="0.298" stroke="none" d="M 302.747 226.603 C 308.068 227.405 313.317 229.961 317.55 233.981 C 321.783 238.001 324.786 243.179 326.395 249.186 C 328.004 255.192 328.312 261.745 327.578 268.459 C 327.762 268.776 316.983 268.92 302.108 268.943 C 304.236 249.385 303.527 235.209 302.747 226.603 Z" style="" fill="rgb(28,28,28)"></path>
      <path stroke="rgb(254,254,254)" stroke-linejoin="round" d="M 293.76 220.595 C 290.474 216.743 287.066 214.069 283.19 211.586 C 275.432 206.69 266.635 204.088 257.649 204.088 C 248.663 204.088 239.841 206.668 232.085 211.586 C 228.207 214.045 224.659 216.908 221.49 220.69 C 224.635 224.237 228.207 227.265 232.085 229.7 C 239.841 234.62 248.663 237.222 257.625 237.222 C 266.612 237.222 275.408 234.62 283.19 229.7 C 287.043 227.265 290.566 224.782 293.76 220.595 Z" style="stroke-width: 3px; fill: rgb(45, 253, 251);"></path>
    </g>
    <g class="Group" style="filter: drop-shadow(rgba(28, 28, 28, 0.71) 1px 2px 1px);" transform="matrix(1, 0, 0, 1, 99.21967125648564, 0.8057580459462441)">
      <path stroke="none" d="M 235.538 268.012 C 235.112 252.923 234.59 240.484 237.429 226.531 C 240.267 212.578 244.83 203.901 250.838 196.972 C 256.867 190.042 264.081 186.686 271.389 187.156 C 278.697 187.63 285.744 191.699 291.513 199.052 C 297.284 206.408 300.357 213.785 302.747 226.603 C 308.068 227.406 313.342 229.984 317.574 234.004 C 321.807 238.025 324.811 243.203 326.419 249.21 C 328.027 255.218 328.31 261.745 327.577 268.46 C 327.697 269.453 235.353 268.662 235.538 268.012 Z" style="fill: rgb(195, 0, 4);"></path>
      <path fill-opacity="0.298" stroke="none" d="M 302.747 226.603 C 308.068 227.405 313.317 229.961 317.55 233.981 C 321.783 238.001 324.786 243.179 326.395 249.186 C 328.004 255.192 328.312 261.745 327.578 268.459 C 327.762 268.776 316.983 268.92 302.108 268.943 C 304.236 249.385 303.527 235.209 302.747 226.603 Z" style="" fill="rgb(28,28,28)"></path>
      <path stroke="rgb(254,254,254)" stroke-linejoin="round" d="M 293.76 220.595 C 290.474 216.743 287.066 214.069 283.19 211.586 C 275.432 206.69 266.635 204.088 257.649 204.088 C 248.663 204.088 239.841 206.668 232.085 211.586 C 228.207 214.045 224.659 216.908 221.49 220.69 C 224.635 224.237 228.207 227.265 232.085 229.7 C 239.841 234.62 248.663 237.222 257.625 237.222 C 266.612 237.222 275.408 234.62 283.19 229.7 C 287.043 227.265 290.566 224.782 293.76 220.595 Z" style="stroke-width: 3px; fill: rgb(45, 253, 251);"></path>
    </g>
  </g>
</svg>